<?xml version="1.0" encoding="UTF-8" standalone="no"?>
<!-- Created with Inkscape (http://www.inkscape.org/) -->

<svg
   width="12in"
   height="4in"
   viewBox="0 0 304.8 101.6"
   version="1.1"
   id="svg1"
   inkscape:version="1.4.2 (ebf0e940, 2025-05-08)"
   sodipodi:docname="controlpanel-front-ink.svg"
   xmlns:inkscape="http://www.inkscape.org/namespaces/inkscape"
   xmlns:sodipodi="http://sodipodi.sourceforge.net/DTD/sodipodi-0.dtd"
   xmlns="http://www.w3.org/2000/svg"
   xmlns:svg="http://www.w3.org/2000/svg">
  <sodipodi:namedview
     id="namedview1"
     pagecolor="#ffffff"
     bordercolor="#000000"
     borderopacity="0.25"
     inkscape:showpageshadow="2"
     inkscape:pageopacity="0.0"
     inkscape:pagecheckerboard="0"
     inkscape:deskcolor="#d1d1d1"
     inkscape:document-units="mm"
     showguides="true"
     inkscape:zoom="2.005285"
     inkscape:cx="490.70332"
     inkscape:cy="99.985789"
     inkscape:window-width="1496"
     inkscape:window-height="826"
     inkscape:window-x="0"
     inkscape:window-y="38"
     inkscape:window-maximized="0"
     inkscape:current-layer="layer3"
     showgrid="false">
    <sodipodi:guide
       position="66.426712,50.719965"
       orientation="0,-1"
       id="guide1"
       inkscape:locked="false" />
    <sodipodi:guide
       position="25.860145,12.009782"
       orientation="1,0"
       id="guide2"
       inkscape:locked="false" />
    <sodipodi:guide
       position="278.83983,101.39594"
       orientation="1,0"
       id="guide3"
       inkscape:locked="false" />
    <sodipodi:guide
       position="269.99857,60.493475"
       orientation="1,0"
       id="guide7"
       inkscape:locked="false" />
    <sodipodi:guide
       position="35.083596,59.895945"
       orientation="1,0"
       id="guide8"
       inkscape:locked="false" />
    <sodipodi:guide
       position="52.421854,12.688424"
       orientation="0,-1"
       id="guide10"
       inkscape:locked="false" />
    <sodipodi:guide
       position="27.078648,77.598471"
       orientation="0,-1"
       id="guide11"
       inkscape:locked="false" />
  </sodipodi:namedview>
  <defs
     id="defs1" />
  <g
     inkscape:groupmode="layer"
     id="layer3"
     inkscape:label="text">
    <path
       style="font-style:italic;font-size:7.05556px;font-family:'Avenir Next';-inkscape-font-specification:'Avenir Next Italic';fill:none;stroke:#000000;stroke-width:0.115722;stroke-dasharray:none"
       d="m 98.842085,24.322491 c -0.318483,0.409478 -0.690039,0.796209 -1.11469,1.160188 -0.42464,0.348822 -0.90996,0.65972 -1.455927,0.932704 -0.530809,0.257824 -1.122286,0.462565 -1.774406,0.614221 -0.636977,0.166826 -1.3346,0.250229 -2.092904,0.250229 -1.076765,0 -2.062553,-0.166816 -2.957343,-0.500469 -0.87962,-0.333652 -1.637924,-0.803803 -2.274889,-1.410432 -0.636966,-0.606639 -1.12986,-1.334603 -1.478683,-2.183891 -0.348812,-0.849295 -0.523223,-1.789581 -0.523223,-2.820862 0,-1.395262 0.250239,-2.69953 0.75073,-3.912804 0.500457,-1.213273 1.182932,-2.267303 2.047382,-3.162091 0.879632,-0.909957 1.903323,-1.622755 3.071086,-2.138396 1.167773,-0.530807 2.418971,-0.796211 3.753572,-0.796211 0.591462,0 1.160184,0.06066 1.706162,0.181971 0.561137,0.12134 1.076776,0.295752 1.546926,0.52322 0.470139,0.212328 0.887194,0.477731 1.251176,0.79621 0.379152,0.318488 0.682475,0.674888 0.909956,1.0692 l -1.478668,0.978207 C 98.607059,13.645667 98.42503,13.387847 98.182375,13.130024 97.954891,12.872206 97.674311,12.644716 97.340658,12.447557 97.007016,12.23523 96.620279,12.068407 96.18048,11.947082 95.755829,11.82577 95.278094,11.765111 94.747301,11.765111 c -1.152625,0 -2.214231,0.242655 -3.184849,0.727964 -0.955448,0.470142 -1.781995,1.099527 -2.47963,1.888154 -0.682454,0.773464 -1.220847,1.668252 -1.615158,2.684365 -0.379141,1.016119 -0.568733,2.062566 -0.568733,3.139343 0,0.78863 0.121283,1.53176 0.363982,2.229389 0.242665,0.682468 0.599062,1.281522 1.069201,1.797162 0.485298,0.500476 1.069191,0.902371 1.751655,1.20569 0.697635,0.288155 1.501438,0.432226 2.411387,0.432226 0.970618,0 1.895749,-0.18957 2.775364,-0.56872 0.87962,-0.394316 1.668253,-1.008534 2.365866,-1.842658 z m 3.662555,-5.755465 c 0.0606,-0.288153 0.12127,-0.659718 0.18197,-1.114694 0.076,-0.454978 0.1289,-0.864457 0.15925,-1.22844 h 1.45593 c -0.0305,0.288152 -0.0682,0.606637 -0.11375,0.955453 -0.0455,0.348817 -0.0911,0.636969 -0.13647,0.864457 h 0.0455 c 0.3943,-0.621802 0.89478,-1.122278 1.50142,-1.501425 0.60663,-0.394312 1.28911,-0.591469 2.0474,-0.591469 0.19716,0 0.37156,0.0076 0.52322,0.02288 0.15167,0.01524 0.3109,0.04559 0.47773,0.09099 l -0.36398,1.455929 c -0.076,-0.03033 -0.21992,-0.06066 -0.43224,-0.09099 -0.19714,-0.03033 -0.40188,-0.0455 -0.61421,-0.0455 -0.40949,0 -0.81139,0.07583 -1.20569,0.227493 -0.39431,0.151647 -0.7583,0.394302 -1.09194,0.727965 -0.3185,0.318484 -0.60665,0.735546 -0.86446,1.251185 -0.24266,0.500477 -0.42464,1.107113 -0.54597,1.819911 l -0.95546,5.459726 h -1.52416 l 1.45592,-8.303335 z m 16.72971,2.243609 c -0.0287,0.362629 -0.11548,0.842738 -0.19137,1.14606 l -6.12585,-0.0091 c 0,0 0.0145,-0.426387 0.0359,-0.55623 0.0214,-0.129845 0.0802,-0.43042 0.15976,-0.600129 l 4.56003,0.01702 c 0.0434,-0.462739 0.0566,-0.687826 0.0566,-0.687826 0,-0.818955 -0.25567,-1.583798 -0.75613,-2.099439 -0.50048,-0.530807 -1.23602,-0.796211 -2.20664,-0.796211 -0.56113,0 -1.08436,0.09857 -1.56965,0.295728 -0.47017,0.181996 -0.89481,0.439816 -1.27396,0.77346 -0.36398,0.333653 -0.67487,0.727952 -0.93269,1.160194 -0.25784,0.432241 -0.50997,1.033756 -0.60433,1.344446 -0.0943,0.31069 -0.23876,1.025716 -0.23368,1.621399 0.004,0.595685 0.17122,1.104507 0.29174,1.401956 0.18201,0.409481 0.42466,0.765879 0.72797,1.069198 0.31849,0.303318 0.68247,0.538389 1.09194,0.70521 0.42465,0.166826 0.87963,0.250239 1.36494,0.250239 0.83411,0 1.56209,-0.181996 2.1839,-0.545974 0.62178,-0.379146 1.12227,-0.818958 1.50141,-1.319435 l 0.95545,0.909957 c -0.62179,0.743127 -1.34216,1.304264 -2.16114,1.683416 -0.81895,0.379141 -1.69099,0.568722 -2.61611,0.568722 -0.68247,0 -1.31943,-0.106212 -1.9109,-0.318494 -0.59147,-0.212325 -1.10713,-0.515649 -1.54693,-0.909949 -0.42466,-0.394317 -0.76587,-0.879626 -1.0237,-1.455932 -0.24265,-0.59147 -0.36398,-1.25877 -0.36398,-2.001899 0,-0.864457 0.15924,-1.690999 0.47772,-2.479625 0.31849,-0.788629 0.75071,-1.478677 1.29669,-2.070147 0.56114,-0.591472 1.21327,-1.061614 1.95641,-1.410429 0.75829,-0.363982 1.56967,-0.545973 2.43412,-0.545973 1.45595,0 2.55545,0.386731 3.29858,1.160191 0.75829,0.773461 1.13744,1.77441 1.13744,3.002849 0,0 0.0152,0.334054 -0.0134,0.696684 z m 8.03478,0.765161 c -0.22201,0.01273 -0.4601,0.01955 -0.60523,0.03953 -0.14512,0.01997 -1.36495,0.189574 -1.9564,0.386733 -0.57632,0.181997 -1.05405,0.447401 -1.43319,0.796209 -0.36399,0.333652 -0.54598,0.781045 -0.54598,1.342183 0,0.333651 0.0606,0.61422 0.18198,0.841709 0.12127,0.212327 0.28055,0.386735 0.47772,0.523224 0.21234,0.121314 0.43967,0.219865 0.70521,0.272993 0.26556,0.05311 0.48839,0.07861 0.81899,0.06823 0.33059,-0.0099 1.05893,0.01733 1.68863,-0.403963 l -0.1671,1.269219 c -0.547,0.358903 -1.40129,0.346824 -2.06676,0.363198 -0.36399,0 -0.73557,-0.04549 -1.1147,-0.136475 -0.37914,-0.09098 -0.72797,-0.242633 -1.04646,-0.454969 -0.30331,-0.227496 -0.56114,-0.51565 -0.77346,-0.864461 -0.19716,-0.348817 -0.29572,-0.781046 -0.29572,-1.296686 0,-0.849294 0.24264,-1.53176 0.72796,-2.047402 0.4853,-0.530803 1.11469,-0.9327 1.88816,-1.205686 0.78862,-0.288151 2.18995,-0.51401 2.63886,-0.568723 0.4489,-0.05471 0.83055,-0.07316 1.08048,-0.07168 z m 1.69246,0.813018 0.1592,-0.887208 0.20476,-1.160177 c 0.0454,-0.25782 0.0759,-0.454977 0.0911,-0.591471 0.0157,-0.151662 0.0236,-0.288155 0.0236,-0.409478 0,-0.77346 -0.21992,-1.319433 -0.65971,-1.637918 -0.43983,-0.318484 -1.05404,-0.477726 -1.84267,-0.477726 -0.63696,0 -1.25117,0.128915 -1.84265,0.38673 -0.59147,0.242655 -1.08435,0.53839 -1.47867,0.887204 l -0.68248,-1.023699 c 0.51565,-0.454978 1.15262,-0.81896 1.91092,-1.091945 0.75829,-0.288151 1.50899,-0.432226 2.25211,-0.432226 0.50048,0 0.97821,0.06066 1.4332,0.18197 0.47014,0.106179 0.87204,0.288162 1.20566,0.545974 0.34882,0.242654 0.62182,0.561137 0.81899,0.955451 0.21233,0.379147 0.31848,0.841707 0.31848,1.387678 0,0.136488 -0.008,0.326063 -0.0236,0.568724 -0.0157,0.227489 -0.0384,0.417061 -0.0681,0.56872 l -0.77345,4.322286 c -0.0759,0.40948 -0.13646,0.834125 -0.18209,1.273937 -0.0454,0.43981 -0.0681,0.811377 -0.0681,1.114701 h -1.36507 c 0,-0.257825 0.008,-0.538394 0.0236,-0.841717 0.0305,-0.303313 0.0682,-0.599053 0.11364,-0.887206 z m 10.46452,-4.891042 H 136.537 l -1.1147,6.233187 c -0.0454,0.272985 -0.0681,0.51564 -0.0681,0.727964 0,0.500476 0.12128,0.834126 0.36399,1.000952 0.24267,0.166819 0.56114,0.250233 0.95545,0.250233 0.21233,0 0.44739,-0.03036 0.70521,-0.09098 0.25782,-0.06066 0.45499,-0.144076 0.59149,-0.250237 l -0.1821,1.319438 c -0.19712,0.106102 -0.45493,0.181985 -0.77345,0.227485 -0.30332,0.06061 -0.6294,0.09098 -0.9782,0.09098 -0.25783,0 -0.52322,-0.03036 -0.79621,-0.09098 -0.25781,-0.06061 -0.50047,-0.166827 -0.72795,-0.318483 -0.21234,-0.166827 -0.39433,-0.386726 -0.54596,-0.659721 -0.1365,-0.272983 -0.20474,-0.621801 -0.20474,-1.046446 0,-0.212329 0.0227,-0.454984 0.0681,-0.727966 l 1.18293,-6.665417 h -2.20665 l 0.25025,-1.273939 h 2.16113 l 0.52322,-3.002849 h 1.52419 l -0.52322,3.002849 h 2.93459 z m 2.36588,1.069196 c 0.0606,-0.288154 0.12127,-0.659719 0.18185,-1.114694 0.0757,-0.454979 0.12877,-0.864459 0.15921,-1.228442 h 1.4559 c -0.0305,0.288153 -0.0682,0.606639 -0.11387,0.955455 -0.0456,0.348816 -0.0911,0.636968 -0.13633,0.864456 h 0.0455 c 0.39433,-0.621803 0.89481,-1.122279 1.50146,-1.501425 0.60662,-0.394312 1.28908,-0.591469 2.04737,-0.591469 0.19711,0 0.37152,0.0076 0.52323,0.02288 0.15174,0.01524 0.31097,0.04558 0.47769,0.091 l -0.36396,1.455928 c -0.076,-0.03033 -0.22002,-0.06066 -0.43222,-0.09099 -0.1971,-0.03033 -0.40184,-0.0455 -0.61422,-0.0455 -0.40947,0 -0.81137,0.07583 -1.20569,0.227494 -0.39432,0.151647 -0.75828,0.394302 -1.09192,0.727966 -0.31851,0.318482 -0.60665,0.735544 -0.86445,1.251184 -0.24268,0.500477 -0.42468,1.107114 -0.54602,1.819911 l -0.95546,5.459565 h -1.52418 z"
       id="text1"
       aria-label="Creatr"
       sodipodi:nodetypes="ccccscssssccsccccccccscccscccscccscccscccsscccssscccccsccczccccscczzzcccscccsssccssccscczcczcccsszzcscsccccczcccsssccccscccscccccccccccccssscccscccsccccccccccccccscccsscccssccccccccc" />
  </g>
  <g
     inkscape:groupmode="layer"
     id="layer4"
     inkscape:label="holes">
    <circle
       style="fill:none;fill-opacity:1;stroke:#000000;stroke-width:0.499999;stroke-dasharray:none;stroke-opacity:1"
       id="path8"
       cx="35.048397"
       cy="13.503157"
       r="2.0999999" />
    <circle
       style="fill:none;fill-opacity:1;stroke:#000000;stroke-width:0.499999;stroke-dasharray:none;stroke-opacity:1"
       id="path8-0"
       cx="35.060646"
       cy="24.516632"
       r="2.0999999" />
    <circle
       style="fill:none;fill-opacity:1;stroke:#000000;stroke-width:0.499999;stroke-dasharray:none;stroke-opacity:1"
       id="path8-7"
       cx="270.01065"
       cy="24.572266"
       r="2.0999999" />
    <circle
       style="fill:none;fill-opacity:1;stroke:#000000;stroke-width:0.499999;stroke-dasharray:none;stroke-opacity:1"
       id="path8-3"
       cx="270.01065"
       cy="13.613092"
       r="2.0999999" />
    <rect
       style="fill:none;fill-opacity:1;stroke:#000000;stroke-width:0.100352;stroke-dasharray:none;stroke-opacity:1"
       id="rect3"
       width="304.69006"
       height="101.50829"
       x="0.070797391"
       y="0.066729859"
       ry="0.20445114" />
    <circle
       style="fill:none;fill-opacity:1;stroke:#000000;stroke-width:0.499999;stroke-dasharray:none;stroke-opacity:1"
       id="path9"
       cx="193.42767"
       cy="19.179337"
       r="8.1000004" />
    <circle
       style="fill:none;fill-opacity:1;stroke:#000000;stroke-width:0.499999;stroke-dasharray:none;stroke-opacity:1"
       id="path9-8"
       cx="235.49042"
       cy="19.179337"
       r="8.1000004" />
  </g>
</svg>
