<?xml version="1.0" encoding="UTF-8" standalone="no"?>
<!-- Created with Inkscape (http://www.inkscape.org/) -->

<svg
   width="12in"
   height="3in"
   viewBox="0 0 304.8 76.2"
   version="1.1"
   id="svg1"
   inkscape:version="1.4.2 (ebf0e940, 2025-05-08)"
   sodipodi:docname="controlpanel-back-ink.svg"
   xmlns:inkscape="http://www.inkscape.org/namespaces/inkscape"
   xmlns:sodipodi="http://sodipodi.sourceforge.net/DTD/sodipodi-0.dtd"
   xmlns="http://www.w3.org/2000/svg"
   xmlns:svg="http://www.w3.org/2000/svg">
  <sodipodi:namedview
     id="namedview1"
     pagecolor="#ffffff"
     bordercolor="#000000"
     borderopacity="0.25"
     inkscape:showpageshadow="2"
     inkscape:pageopacity="0.0"
     inkscape:pagecheckerboard="0"
     inkscape:deskcolor="#d1d1d1"
     inkscape:document-units="mm"
     showguides="true"
     inkscape:zoom="1.7206072"
     inkscape:cx="153.43421"
     inkscape:cy="172.90408"
     inkscape:window-width="1456"
     inkscape:window-height="760"
     inkscape:window-x="0"
     inkscape:window-y="38"
     inkscape:window-maximized="0"
     inkscape:current-layer="layer4"
     showgrid="false">
    <sodipodi:guide
       position="141.66862,6.4900433"
       orientation="0,-1"
       id="guide1"
       inkscape:locked="false" />
    <sodipodi:guide
       position="25.860145,12.009782"
       orientation="1,0"
       id="guide2"
       inkscape:locked="false" />
    <sodipodi:guide
       position="278.83983,101.39594"
       orientation="1,0"
       id="guide3"
       inkscape:locked="false" />
    <sodipodi:guide
       position="153.01677,56.942788"
       orientation="1,0"
       id="guide4"
       inkscape:locked="false" />
    <sodipodi:guide
       position="46.766576,41.200498"
       orientation="0,-1"
       id="guide5"
       inkscape:locked="false" />
    <sodipodi:guide
       position="39.5253,30.187723"
       orientation="0,-1"
       id="guide6"
       inkscape:locked="false" />
    <sodipodi:guide
       position="269.99857,60.493475"
       orientation="1,0"
       id="guide7"
       inkscape:locked="false" />
    <sodipodi:guide
       position="35.083596,59.895945"
       orientation="1,0"
       id="guide8"
       inkscape:locked="false" />
  </sodipodi:namedview>
  <defs
     id="defs1" />
  <g
     inkscape:groupmode="layer"
     id="layer2"
     inkscape:label="dc-jacks">
    <circle
       style="fill:none;stroke:#000000;stroke-width:0.5;stroke-dasharray:none"
       id="path1"
       cx="53.618576"
       cy="49.586643"
       r="5.0999999" />
    <circle
       style="fill:none;stroke:#000000;stroke-width:0.5;stroke-dasharray:none"
       id="path1-55"
       cx="71.760414"
       cy="28.7817"
       r="5.0999999" />
    <circle
       style="fill:none;stroke:#000000;stroke-width:0.5;stroke-dasharray:none"
       id="path1-8"
       cx="112.44009"
       cy="28.7817"
       r="5.0999999" />
    <circle
       style="fill:none;stroke:#000000;stroke-width:0.5;stroke-dasharray:none"
       id="path1-85"
       cx="153.11978"
       cy="28.7817"
       r="5.0999999" />
    <circle
       style="fill:none;stroke:#000000;stroke-width:0.5;stroke-dasharray:none"
       id="path1-2"
       cx="193.79947"
       cy="28.7817"
       r="5.0999999" />
    <circle
       style="fill:none;stroke:#000000;stroke-width:0.5;stroke-dasharray:none"
       id="path1-71"
       cx="234.47916"
       cy="28.7817"
       r="5.0999999" />
    <circle
       style="fill:none;stroke:#000000;stroke-width:0.5;stroke-dasharray:none"
       id="path1-4"
       cx="93.336113"
       cy="49.586643"
       r="5.0999999" />
    <circle
       style="fill:none;stroke:#000000;stroke-width:0.5;stroke-dasharray:none"
       id="path1-5"
       cx="133.05365"
       cy="49.586643"
       r="5.0999999" />
    <circle
       style="fill:none;stroke:#000000;stroke-width:0.5;stroke-dasharray:none"
       id="path1-3"
       cx="172.77118"
       cy="49.586643"
       r="5.0999999" />
    <circle
       style="fill:none;stroke:#000000;stroke-width:0.5;stroke-dasharray:none"
       id="path1-6"
       cx="212.48872"
       cy="49.586643"
       r="5.0999999" />
    <circle
       style="fill:none;stroke:#000000;stroke-width:0.5;stroke-dasharray:none"
       id="path1-7"
       cx="252.20625"
       cy="49.586643"
       r="5.0999999" />
  </g>
  <g
     inkscape:groupmode="layer"
     id="layer3"
     inkscape:label="text">
    <path
       style="font-style:italic;font-size:7.05556px;font-family:'Avenir Next';-inkscape-font-specification:'Avenir Next Italic';stroke:#000000;stroke-width:0.5"
       d="m 39.441648,13.769487 q -0.148166,0.1905 -0.345722,0.359833 -0.197556,0.162278 -0.451556,0.289278 -0.246945,0.119945 -0.550334,0.1905 -0.296333,0.07761 -0.649111,0.07761 -0.500945,0 -0.917223,-0.155223 -0.409223,-0.155222 -0.705556,-0.437444 -0.296334,-0.282223 -0.458611,-0.677334 -0.162278,-0.395112 -0.162278,-0.87489 0,-0.649111 0.232833,-1.213556 0.232834,-0.564445 0.635001,-0.980723 0.409222,-0.4233334 0.9525,-0.6632225 0.543278,-0.2469446 1.164168,-0.2469446 0.275166,0 0.529167,0.056444 0.261055,0.056445 0.479778,0.1622779 0.218722,0.098778 0.388055,0.2469446 0.176389,0.1481671 0.282223,0.3316111 L 39.40637,10.53804 q -0.05644,-0.119944 -0.169333,-0.239889 -0.105833,-0.119944 -0.261056,-0.211667 -0.155222,-0.098777 -0.359833,-0.1552219 -0.197556,-0.056444 -0.444501,-0.056444 -0.536222,0 -0.987778,0.2257784 -0.4445,0.218722 -0.769056,0.585611 -0.3175,0.359834 -0.500945,0.832556 -0.176389,0.472723 -0.176389,0.973667 0,0.36689 0.112889,0.691445 0.112889,0.317501 0.331611,0.55739 0.225778,0.232833 0.543279,0.373944 0.324555,0.134056 0.747889,0.134056 0.451556,0 0.860778,-0.176389 0.409223,-0.183445 0.733779,-0.5715 z m 1.135941,-1.785057 q 0.02822,-0.134056 0.05644,-0.345722 0.03528,-0.211667 0.04939,-0.381001 h 0.451556 q -0.01411,0.134056 -0.03528,0.296334 -0.02117,0.162278 -0.04233,0.268111 h 0.01411 q 0.183444,-0.289278 0.465667,-0.465667 0.282222,-0.183444 0.635,-0.183444 0.09172,0 0.162278,0.0071 0.07056,0.0071 0.148167,0.02822 l -0.112889,0.451556 q -0.03528,-0.01411 -0.134056,-0.02822 -0.09172,-0.01411 -0.1905,-0.01411 -0.1905,0 -0.373945,0.07056 -0.183444,0.07055 -0.338666,0.225778 -0.148167,0.148166 -0.268112,0.388055 -0.112889,0.232834 -0.169333,0.564445 l -0.296334,1.693335 h -0.472722 l 0.451556,-2.57528 z m 2.398893,1.051279 q -0.0071,0.04233 -0.01411,0.08467 0,0.03528 0,0.07056 0,0.232833 0.07761,0.423333 0.08467,0.190501 0.225778,0.331612 0.148167,0.141111 0.338667,0.218722 0.197556,0.07761 0.423334,0.07761 0.388055,0 0.677333,-0.169333 0.289278,-0.176389 0.465667,-0.409223 l 0.296334,0.282223 q -0.289278,0.345722 -0.670278,0.522111 -0.381001,0.176389 -0.81139,0.176389 -0.3175,0 -0.592667,-0.09878 -0.275167,-0.09878 -0.479778,-0.282222 -0.197556,-0.183445 -0.3175,-0.451556 -0.112889,-0.275167 -0.112889,-0.620889 0,-0.402167 0.148167,-0.769056 0.148166,-0.366889 0.402167,-0.642056 0.261055,-0.275167 0.606778,-0.437445 0.352778,-0.169333 0.754945,-0.169333 0.677334,0 1.023056,0.359833 0.352778,0.359834 0.352778,0.931334 0,0.08467 -0.01411,0.261056 -0.01411,0.169333 -0.04939,0.310445 z m 2.307168,-0.352778 q 0.0071,-0.05645 0.0071,-0.119945 0.0071,-0.07056 0.0071,-0.127 0,-0.381 -0.232833,-0.620889 -0.232834,-0.246945 -0.684389,-0.246945 -0.261056,0 -0.486834,0.09172 -0.218722,0.08467 -0.395111,0.239889 -0.169334,0.155223 -0.289278,0.359834 -0.119945,0.197556 -0.169334,0.423334 z m 3.612443,-0.148167 q 0.02117,-0.119945 0.02822,-0.183445 0.0071,-0.07056 0.0071,-0.127 0,-0.359833 -0.204612,-0.508 -0.204611,-0.148167 -0.5715,-0.148167 -0.296333,0 -0.5715,0.119945 -0.275167,0.112889 -0.458612,0.275166 l -0.211667,-0.3175 q 0.239889,-0.211667 0.592668,-0.338667 0.352778,-0.134055 0.6985,-0.134055 0.232833,0 0.4445,0.05644 0.218723,0.04939 0.373945,0.169334 0.162278,0.112889 0.254,0.296333 0.09878,0.176389 0.09878,0.430389 0,0.0635 -0.0071,0.176389 -0.0071,0.105834 -0.02117,0.176389 l -0.239889,1.340557 q -0.03528,0.1905 -0.05644,0.395111 -0.02117,0.204611 -0.02117,0.345723 h -0.423333 q 0,-0.119945 0.0071,-0.261056 0.01411,-0.141111 0.03528,-0.275167 h -0.01411 q -0.141111,0.162278 -0.282222,0.282222 -0.141111,0.112889 -0.296334,0.183445 -0.148167,0.07056 -0.324556,0.09878 -0.169333,0.03528 -0.373944,0.03528 -0.169334,0 -0.345723,-0.04233 -0.176389,-0.04233 -0.324555,-0.141111 -0.141112,-0.105833 -0.23989,-0.268111 -0.09172,-0.162278 -0.09172,-0.402167 0,-0.395112 0.225778,-0.635001 0.225778,-0.246944 0.585612,-0.373944 0.366889,-0.134056 0.818445,-0.176389 0.451555,-0.04939 0.910167,-0.04939 z m -0.176389,0.359833 q -0.3175,0 -0.649112,0.03528 -0.331611,0.02822 -0.606778,0.119945 -0.268111,0.08467 -0.4445,0.246944 -0.169334,0.155223 -0.169334,0.416278 0,0.155223 0.05644,0.261056 0.05644,0.09878 0.148167,0.162278 0.09878,0.05644 0.218722,0.08467 0.127,0.02117 0.254,0.02117 0.254,0 0.465667,-0.08467 0.211667,-0.08467 0.373945,-0.232834 0.162278,-0.148167 0.268111,-0.338667 0.105834,-0.197555 0.148167,-0.416278 l 0.04939,-0.275167 z m 3.309059,-1.241778 h -0.896056 l -0.345723,1.933223 q -0.02117,0.127 -0.02117,0.225778 0,0.232834 0.112889,0.310445 0.112889,0.07761 0.296333,0.07761 0.09878,0 0.218723,-0.02822 0.119944,-0.02822 0.183444,-0.07761 l -0.05644,0.409222 q -0.09172,0.04939 -0.239889,0.07056 -0.141112,0.02822 -0.303389,0.02822 -0.119945,0 -0.246945,-0.02822 -0.119945,-0.02822 -0.225778,-0.09878 -0.09878,-0.07761 -0.169333,-0.204611 -0.0635,-0.127 -0.0635,-0.324556 0,-0.09878 0.02117,-0.225778 l 0.366889,-2.067279 h -0.684389 l 0.07761,-0.395112 h 0.670278 l 0.162278,-0.931334 h 0.472723 l -0.162278,0.931334 h 0.910167 z m 0.733773,0.331611 q 0.02822,-0.134056 0.05645,-0.345722 0.03528,-0.211667 0.04939,-0.381001 h 0.451555 q -0.01411,0.134056 -0.03528,0.296334 -0.02117,0.162278 -0.04233,0.268111 h 0.01411 q 0.183445,-0.289278 0.465667,-0.465667 0.282223,-0.183444 0.635001,-0.183444 0.09172,0 0.162278,0.0071 0.07055,0.0071 0.148166,0.02822 l -0.112889,0.451556 q -0.03528,-0.01411 -0.134055,-0.02822 -0.09172,-0.01411 -0.1905,-0.01411 -0.1905,0 -0.373945,0.07056 -0.183445,0.07055 -0.338667,0.225778 -0.148167,0.148166 -0.268111,0.388055 -0.112889,0.232834 -0.169334,0.564445 L 52.783703,14.55971 H 52.31098 l 0.451556,-2.57528 z"
       id="text1"
       aria-label="Creatr" />
  </g>
  <g
     inkscape:groupmode="layer"
     id="layer4"
     inkscape:label="holes">
    <circle
       style="fill:none;fill-opacity:1;stroke:#000000;stroke-width:0.499999;stroke-dasharray:none;stroke-opacity:1"
       id="path8"
       cx="35.048397"
       cy="34.937134"
       r="2.0999999" />
    <circle
       style="fill:none;fill-opacity:1;stroke:#000000;stroke-width:0.499999;stroke-dasharray:none;stroke-opacity:1"
       id="path8-0"
       cx="35.060646"
       cy="45.950615"
       r="2.0999999" />
    <circle
       style="fill:none;fill-opacity:1;stroke:#000000;stroke-width:0.499999;stroke-dasharray:none;stroke-opacity:1"
       id="path8-7"
       cx="270.01065"
       cy="46.006248"
       r="2.0999999" />
    <circle
       style="fill:none;fill-opacity:1;stroke:#000000;stroke-width:0.499999;stroke-dasharray:none;stroke-opacity:1"
       id="path8-3"
       cx="270.01065"
       cy="35.04707"
       r="2.0999999" />
    <rect
       style="fill:none;fill-opacity:1;stroke:#000000;stroke-width:0.496528;stroke-dasharray:none;stroke-opacity:1"
       id="rect3"
       width="304.13159"
       height="76.171829"
       x="0.35314688"
       y="0.35314688"
       ry="0.15342018" />
  </g>
</svg>
