<?xml version="1.0" encoding="UTF-8" standalone="no"?>
<!-- Created with Inkscape (http://www.inkscape.org/) -->

<svg
   width="12in"
   height="4in"
   viewBox="0 0 304.8 101.6"
   version="1.1"
   id="svg1"
   inkscape:version="1.4.2 (ebf0e940, 2025-05-08)"
   sodipodi:docname="cutter-template.svg"
   xmlns:inkscape="http://www.inkscape.org/namespaces/inkscape"
   xmlns:sodipodi="http://sodipodi.sourceforge.net/DTD/sodipodi-0.dtd"
   xmlns="http://www.w3.org/2000/svg"
   xmlns:svg="http://www.w3.org/2000/svg">
  <sodipodi:namedview
     id="namedview1"
     pagecolor="#ffffff"
     bordercolor="#000000"
     borderopacity="0.25"
     inkscape:showpageshadow="2"
     inkscape:pageopacity="0.0"
     inkscape:pagecheckerboard="0"
     inkscape:deskcolor="#d1d1d1"
     inkscape:document-units="mm"
     showguides="true"
     inkscape:zoom="0.49959415"
     inkscape:cx="546.44355"
     inkscape:cy="179.14541"
     inkscape:window-width="1496"
     inkscape:window-height="826"
     inkscape:window-x="0"
     inkscape:window-y="38"
     inkscape:window-maximized="0"
     inkscape:current-layer="layer4"
     showgrid="false">
    <sodipodi:guide
       position="66.426712,50.719965"
       orientation="0,-1"
       id="guide1"
       inkscape:locked="false" />
    <sodipodi:guide
       position="25.860145,12.009782"
       orientation="1,0"
       id="guide2"
       inkscape:locked="false" />
    <sodipodi:guide
       position="278.83983,101.39594"
       orientation="1,0"
       id="guide3"
       inkscape:locked="false" />
    <sodipodi:guide
       position="269.99857,60.493475"
       orientation="1,0"
       id="guide7"
       inkscape:locked="false" />
    <sodipodi:guide
       position="35.083596,59.895945"
       orientation="1,0"
       id="guide8"
       inkscape:locked="false" />
    <sodipodi:guide
       position="52.421854,12.688424"
       orientation="0,-1"
       id="guide10"
       inkscape:locked="false" />
    <sodipodi:guide
       position="27.078648,77.598471"
       orientation="0,-1"
       id="guide11"
       inkscape:locked="false" />
  </sodipodi:namedview>
  <defs
     id="defs1" />
  <g
     inkscape:groupmode="layer"
     id="layer3"
     inkscape:label="text">
    <path
       style="font-style:italic;font-size:7.05556px;font-family:'Avenir Next';-inkscape-font-specification:'Avenir Next Italic';stroke:#000000;stroke-width:0.683491"
       d="m 81.955388,25.562738 q -0.20254,0.26041 -0.472595,0.491885 -0.270056,0.221831 -0.617269,0.395437 -0.337569,0.163963 -0.752296,0.26041 -0.405082,0.106092 -0.887323,0.106092 -0.684783,0 -1.253827,-0.212187 -0.5594,-0.212186 -0.964482,-0.597978 -0.405083,-0.385794 -0.626913,-0.925903 -0.221831,-0.540111 -0.221831,-1.195958 0,-0.887323 0.318279,-1.658909 0.318279,-0.771586 0.868034,-1.34063 0.559399,-0.57869 1.30205,-0.906614 0.742651,-0.337569 1.591396,-0.337569 0.376147,0 0.723362,0.07715 0.356857,0.07717 0.655847,0.221829 0.298989,0.135031 0.530464,0.337569 0.241121,0.202543 0.385794,0.453308 l -0.626914,0.41473 q -0.07715,-0.163961 -0.231475,-0.327924 -0.144672,-0.163961 -0.356859,-0.289345 -0.212186,-0.13503 -0.491885,-0.212186 -0.270055,-0.07715 -0.607625,-0.07715 -0.733005,0 -1.350274,0.308634 -0.607623,0.298989 -1.051285,0.80052 -0.434017,0.491886 -0.684783,1.138088 -0.24112,0.646204 -0.24112,1.330985 0,0.501532 0.154317,0.945192 0.154317,0.434018 0.453306,0.761942 0.308634,0.318279 0.742652,0.511175 0.443661,0.183252 1.022351,0.183252 0.617268,0 1.176667,-0.241121 0.559401,-0.250766 1.003063,-0.78123 z m 1.55281,-2.44014 q 0.03858,-0.183252 0.07715,-0.472596 0.04823,-0.289345 0.06752,-0.520821 h 0.617269 q -0.01929,0.183252 -0.04823,0.405083 -0.02894,0.221831 -0.05786,0.366503 h 0.01929 q 0.250765,-0.395438 0.636558,-0.636558 0.385793,-0.250765 0.868034,-0.250765 0.125379,0 0.221831,0.0097 0.09645,0.0097 0.202541,0.03858 l -0.154317,0.617269 q -0.04823,-0.01929 -0.183252,-0.03858 -0.12538,-0.01929 -0.26041,-0.01929 -0.26041,0 -0.511176,0.09645 -0.250764,0.09644 -0.46295,0.308635 -0.202542,0.20254 -0.366504,0.530464 -0.154317,0.31828 -0.231475,0.771586 l -0.405083,2.314757 h -0.646202 l 0.617268,-3.52036 z m 3.279242,1.437079 q -0.0097,0.05786 -0.01929,0.115742 0,0.04823 0,0.09645 0,0.318279 0.106092,0.578689 0.115742,0.260411 0.308634,0.453307 0.202542,0.192896 0.462952,0.298989 0.270055,0.106091 0.578689,0.106091 0.530464,0 0.925902,-0.231475 0.395438,-0.24112 0.636558,-0.5594 l 0.405083,0.385794 q -0.395437,0.472595 -0.916257,0.713716 -0.520822,0.24112 -1.109155,0.24112 -0.434017,0 -0.810165,-0.13503 -0.376148,-0.135031 -0.655848,-0.385792 -0.270055,-0.250766 -0.434016,-0.617269 -0.154318,-0.376148 -0.154318,-0.848744 0,-0.549755 0.202542,-1.051285 0.20254,-0.501531 0.549755,-0.877679 0.356857,-0.376148 0.829454,-0.597979 0.482241,-0.231475 1.031996,-0.231475 0.925903,0 1.398498,0.491885 0.482241,0.491886 0.482241,1.273116 0,0.115743 -0.01929,0.356859 -0.01929,0.231475 -0.06752,0.424373 z m 3.153856,-0.482241 q 0.0097,-0.07717 0.0097,-0.163963 0.0097,-0.09645 0.0097,-0.173607 0,-0.520819 -0.318278,-0.848743 -0.31828,-0.337569 -0.935547,-0.337569 -0.356859,0 -0.665493,0.125379 -0.298989,0.115742 -0.540109,0.327924 -0.231477,0.212187 -0.395438,0.491886 -0.163963,0.270056 -0.231477,0.57869 z m 4.938143,-0.202542 q 0.0289,-0.163962 0.0386,-0.250766 0.01,-0.09645 0.01,-0.173606 0,-0.491885 -0.2797,-0.694427 -0.2797,-0.202541 -0.78123,-0.202541 -0.40508,0 -0.78123,0.163962 -0.376147,0.154317 -0.626913,0.376147 l -0.289345,-0.434017 q 0.327924,-0.289345 0.810168,-0.462951 0.48224,-0.183251 0.95483,-0.183251 0.31828,0 0.60763,0.07715 0.29899,0.06752 0.51117,0.231476 0.22183,0.154317 0.34722,0.405082 0.13503,0.24112 0.13503,0.588333 0,0.0868 -0.01,0.241121 -0.01,0.144673 -0.0289,0.24112 l -0.32792,1.832517 q -0.0482,0.26041 -0.0772,0.540109 -0.0289,0.2797 -0.0289,0.472597 h -0.57875 q 0,-0.163962 0.01,-0.356858 0.0193,-0.192897 0.0482,-0.376149 h -0.0193 q -0.19289,0.221831 -0.38579,0.385793 -0.19289,0.154317 -0.40508,0.250766 -0.20254,0.09645 -0.44366,0.13503 -0.23148,0.04823 -0.511178,0.04823 -0.231476,0 -0.472597,-0.05786 -0.24112,-0.05786 -0.44366,-0.192896 -0.192898,-0.144672 -0.327926,-0.366503 -0.125379,-0.221831 -0.125379,-0.549755 0,-0.540111 0.308634,-0.868035 0.308634,-0.337567 0.800521,-0.511174 0.501535,-0.183252 1.118795,-0.241121 0.61727,-0.06752 1.24419,-0.06752 z m -0.24112,0.491885 q -0.43402,0 -0.88732,0.04823 -0.45331,0.03858 -0.829459,0.163963 -0.366503,0.115742 -0.607623,0.337568 -0.231477,0.212187 -0.231477,0.569044 0,0.212187 0.07715,0.356859 0.07715,0.13503 0.202541,0.221831 0.135031,0.07715 0.298989,0.115742 0.173607,0.02894 0.347219,0.02894 0.34721,0 0.63656,-0.115742 0.28934,-0.115743 0.51117,-0.31828 0.22183,-0.202542 0.3665,-0.462951 0.14468,-0.270055 0.20255,-0.569045 l 0.0675,-0.376148 z m 4.52342,-1.697487 h -1.22489 l -0.4726,2.64268 q -0.0289,0.173606 -0.0289,0.308634 0,0.31828 0.15432,0.424373 0.15432,0.106091 0.40508,0.106091 0.13503,0 0.29899,-0.03858 0.16396,-0.03858 0.25077,-0.106092 l -0.0772,0.559399 q -0.12537,0.06751 -0.32792,0.09645 -0.1929,0.03858 -0.41473,0.03858 -0.16396,0 -0.33757,-0.03858 -0.16396,-0.03858 -0.30863,-0.13503 -0.13503,-0.106091 -0.23147,-0.279699 -0.0868,-0.173607 -0.0868,-0.443662 0,-0.135031 0.0289,-0.308635 l 0.50153,-2.825932 h -0.93555 l 0.1061,-0.540111 h 0.91625 l 0.22183,-1.273116 h 0.64621 l -0.22183,1.273116 h 1.24418 z m 1.003061,0.453306 q 0.0386,-0.183252 0.0771,-0.472596 0.0482,-0.289345 0.0675,-0.520821 h 0.61726 q -0.0193,0.183252 -0.0483,0.405083 -0.029,0.221831 -0.0578,0.366503 h 0.0193 q 0.25078,-0.395438 0.63657,-0.636558 0.38579,-0.250765 0.86803,-0.250765 0.12535,0 0.22183,0.0097 0.0965,0.0097 0.20253,0.03858 l -0.15431,0.617269 q -0.0483,-0.01929 -0.18325,-0.03858 -0.12535,-0.01929 -0.26041,-0.01929 -0.26041,0 -0.51118,0.09645 -0.25076,0.09644 -0.46294,0.308635 -0.20255,0.20254 -0.3665,0.530464 -0.15432,0.31828 -0.23149,0.771586 l -0.40509,2.314689 h -0.646201 z"
       id="text1"
       aria-label="Creatr" />
  </g>
  <g
     inkscape:groupmode="layer"
     id="layer4"
     inkscape:label="holes">
    <circle
       style="fill:none;fill-opacity:1;stroke:#000000;stroke-width:0.499999;stroke-dasharray:none;stroke-opacity:1"
       id="path8"
       cx="35.048397"
       cy="13.503157"
       r="2.0999999" />
    <circle
       style="fill:none;fill-opacity:1;stroke:#000000;stroke-width:0.499999;stroke-dasharray:none;stroke-opacity:1"
       id="path8-0"
       cx="35.060646"
       cy="24.516632"
       r="2.0999999" />
    <circle
       style="fill:none;fill-opacity:1;stroke:#000000;stroke-width:0.499999;stroke-dasharray:none;stroke-opacity:1"
       id="path8-7"
       cx="270.01065"
       cy="24.572266"
       r="2.0999999" />
    <circle
       style="fill:none;fill-opacity:1;stroke:#000000;stroke-width:0.499999;stroke-dasharray:none;stroke-opacity:1"
       id="path8-3"
       cx="270.01065"
       cy="13.613092"
       r="2.0999999" />
    <rect
       style="fill:none;fill-opacity:1;stroke:#000000;stroke-width:0.100352;stroke-dasharray:none;stroke-opacity:1"
       id="rect3"
       width="304.69006"
       height="101.50829"
       x="0.070797391"
       y="0.066729859"
       ry="0.20445114" />
    <circle
       style="fill:none;fill-opacity:1;stroke:#000000;stroke-width:0.499999;stroke-dasharray:none;stroke-opacity:1"
       id="path9"
       cx="191.18311"
       cy="23.651321"
       r="8.1000004" />
    <circle
       style="fill:none;fill-opacity:1;stroke:#000000;stroke-width:0.499999;stroke-dasharray:none;stroke-opacity:1"
       id="path9-8"
       cx="233.24585"
       cy="23.651321"
       r="8.1000004" />
  </g>
</svg>
